<?xml version="1.0" encoding="UTF-8" standalone="no"?>
<svg width="306px" height="11px" viewBox="0 0 306 11" version="1.1" xmlns="http://www.w3.org/2000/svg" xmlns:xlink="http://www.w3.org/1999/xlink" xmlns:sketch="http://www.bohemiancoding.com/sketch/ns">
    <!-- Generator: Sketch 3.3.3 (12081) - http://www.bohemiancoding.com/sketch -->
    <defs></defs>
    <g id="design" stroke="none" stroke-width="1" fill="none" fill-rule="evenodd" sketch:type="MSPage">
        <g id="Start" sketch:type="MSArtboardGroup" transform="translate(-902.000000, -7141.000000)" stroke="#000000" stroke-linejoin="round">
            <g id="news-module" sketch:type="MSLayerGroup" transform="translate(83.000000, 6203.000000)">
                <g id="email-module" transform="translate(671.000000, 187.000000)" sketch:type="MSShapeGroup">
                    <path d="M453.247159,756.061778 C453.247159,756.061778 451.017133,761.139 444.325734,761.139 C435.590695,761.139 431.873545,752 425.182146,752 C418.492069,752 414.774918,761.139 406.03988,761.139 C397.304841,761.139 393.587691,752 386.896292,752 C380.206215,752 376.489064,761.139 367.752704,761.139 C359.017665,761.139 355.300515,752 348.609116,752 C341.919039,752 338.201888,761.139 329.46685,761.139 C320.731811,761.139 317.014661,752 310.323262,752 C303.633185,752 299.916034,761.139 291.179674,761.139 C282.444635,761.139 278.727485,752 272.037408,752 C265.346009,752 261.628858,761.139 252.89382,761.139 C244.158781,761.139 240.441631,752 233.750232,752 C227.060155,752 223.341682,761.139 214.606644,761.139 C205.871605,761.139 202.154455,752 195.464378,752 C188.772979,752 185.055828,761.139 176.32079,761.139 C167.585751,761.139 164.611502,752 157.920103,752 C151.230026,752 149,757.077222 149,757.077222" id="Imported-Layers"></path>
                </g>
            </g>
        </g>
    </g>
</svg>