<?xml version="1.0" encoding="utf-8"?><svg xmlns="http://www.w3.org/2000/svg" xmlns:xlink="http://www.w3.org/1999/xlink"><symbol viewBox="0 0 306 11" id="wave"><path d="M305.247 5.062s-2.23 5.077-8.92 5.077C287.59 10.14 283.873 1 277.18 1c-6.69 0-10.407 9.14-19.142 9.14S245.588 1 238.896 1c-6.69 0-10.407 9.14-19.143 9.14C211.018 10.14 207.3 1 200.61 1c-6.69 0-10.408 9.14-19.143 9.14-8.735 0-12.452-9.14-19.144-9.14-6.69 0-10.407 9.14-19.143 9.14-8.735 0-12.453-9.14-19.143-9.14-6.69 0-10.408 9.14-19.143 9.14C96.16 10.14 92.442 1 85.75 1c-6.69 0-10.408 9.14-19.143 9.14C57.872 10.14 54.154 1 47.464 1c-6.69 0-10.408 9.14-19.143 9.14C19.588 10.14 16.614 1 9.92 1 3.23 1 1 6.077 1 6.077" stroke="#000" stroke-linejoin="round" fill="none"/></symbol></svg>